<svg width="51" height="47" viewBox="0 0 51 47" fill="none" xmlns="http://www.w3.org/2000/svg">
<path d="M14.0481 19.4714C14.038 20.5516 13.1016 21.4193 11.9939 21.4016C10.846 21.3839 9.88943 20.4896 9.91964 19.4714C9.94985 18.3558 10.836 17.4703 11.9134 17.4881C13.1117 17.4969 14.0582 18.3735 14.0481 19.4714Z" fill="black"/>
<path d="M40.3797 18.0373C40.3696 19.1175 39.4331 19.9852 38.3255 19.9675C37.1776 19.9498 36.221 19.0555 36.2512 18.0373C36.2814 16.9217 37.1675 16.0363 38.2449 16.054C39.4533 16.0628 40.3998 16.9394 40.3797 18.0373Z" fill="black"/>
<path d="M26.9974 32.5754C22.728 32.7347 18.811 32.1415 15.7599 29.3436C15.2363 28.8655 14.7429 28.3342 14.4307 27.741C14.2797 27.4665 14.1488 26.9441 14.7328 26.6608C15.0953 26.4837 15.5585 26.6697 15.8505 26.8644C16.5856 27.3426 17.1998 27.9712 17.945 28.4493C21.4491 30.7249 25.3259 31.4332 29.5248 30.353C31.6495 29.8129 33.1297 28.4405 34.4387 26.9353C34.9221 26.3863 35.4557 25.554 36.3318 26.1295C37.2078 26.7139 36.4224 27.4223 35.9693 27.9535C33.6835 30.6275 30.9245 32.5931 26.9974 32.5754Z" fill="black"/>
<path d="M31.3476 46.1491C25.4066 45.9897 20.5129 44.9184 15.8306 43.0236C14.3403 42.4215 12.7795 41.9611 11.2591 41.4475C9.24517 40.7658 7.48302 39.721 6.57677 37.9944C4.50247 34.0366 2.32747 30.0876 0.716356 25.9704C-0.783991 22.1366 0.142397 18.2939 2.84101 15.0178C4.93545 12.4767 6.2042 9.74962 7.12052 6.7392C8.2483 3.04701 11.3598 1.0017 15.5889 0.204822C17.5323 -0.158199 19.375 -0.0430944 21.2278 0.585552C22.9497 1.16993 24.732 1.26732 26.5344 0.833468C29.8775 0.0277389 32.9285 0.860031 35.9191 2.12618C37.3188 2.71055 38.7486 3.33034 40.249 3.62253C45.1931 4.57878 47.7306 7.43868 48.4052 11.6001C48.7375 13.6632 48.5462 15.8147 48.375 17.9132C48.224 19.746 48.4455 21.4814 49.1101 23.208C50.832 27.6882 50.5702 32.071 48.2139 36.3475C46.774 38.9684 44.4177 40.7392 41.558 42.0939C39.5542 43.0413 37.5604 44.0152 35.617 45.06C34.0462 45.9012 32.3646 46.1934 31.3476 46.1491ZM31.2973 44.5022C32.848 44.5199 34.0261 44.0861 35.607 43.0147C36.6743 42.2975 37.9431 41.8017 39.1212 41.2173C40.5108 40.5356 42.1421 40.0751 43.2698 39.1455C48.0629 35.1788 49.1504 30.0965 47.5393 24.7751C46.5021 21.3397 46.19 18.046 46.6431 14.5751C47.2271 10.0418 44.4077 6.63295 39.4636 5.42878C37.7518 5.01264 36.1105 4.3043 34.4993 3.62253C32.4351 2.75482 30.3105 2.00222 28.0348 2.48034C25.0743 3.10014 22.2549 2.90534 19.4153 2.0642C18.4889 1.78972 17.4417 1.5418 16.4952 1.6392C12.6889 2.02878 10.0205 4.00326 9.06392 7.13764C8.02677 10.5465 6.28476 13.5126 4.1299 16.4434C1.89448 19.4892 1.30038 22.96 2.89136 26.4574C4.46219 29.9194 6.174 33.3371 7.86566 36.7548C8.70143 38.4548 10.1716 39.5882 12.1552 40.2345C14.0282 40.8455 15.9212 41.421 17.7438 42.1382C21.7615 43.7054 26.0209 44.2366 31.2973 44.5022Z" fill="black"/>
</svg>
